<?xml version="1.0" encoding="UTF-8" standalone="no"?>
<!DOCTYPE svg PUBLIC "-//W3C//DTD SVG 1.1//EN"
 "http://www.w3.org/Graphics/SVG/1.1/DTD/svg11.dtd">
<!-- Generated by graphviz version 2.30.1 (20150306.0020)
 -->
<!-- Title: G Pages: 1 -->
<svg width="362pt" height="444pt"
 viewBox="0.00 0.00 362.00 444.00" xmlns="http://www.w3.org/2000/svg" xmlns:xlink="http://www.w3.org/1999/xlink">
<g id="graph0" class="graph" transform="scale(1 1) rotate(0) translate(4 440)">
<title>G</title>
<polygon fill="white" stroke="white" points="-4,5 -4,-440 359,-440 359,5 -4,5"/>
<g id="clust1" class="cluster"><title>cluster_Global</title>
<path fill="none" stroke="gray" d="M20,-44C20,-44 334,-44 334,-44 340,-44 346,-50 346,-56 346,-56 346,-416 346,-416 346,-422 340,-428 334,-428 334,-428 20,-428 20,-428 14,-428 8,-422 8,-416 8,-416 8,-56 8,-56 8,-50 14,-44 20,-44"/>
<text text-anchor="middle" x="177" y="-415.2" font-family="Times,serif" font-size="11.00" fill="gray">Global</text>
</g>
<g id="clust2" class="cluster"><title>cluster_\ActionView</title>
<path fill="none" stroke="gray" d="M28,-52C28,-52 326,-52 326,-52 332,-52 338,-58 338,-64 338,-64 338,-388 338,-388 338,-394 332,-400 326,-400 326,-400 28,-400 28,-400 22,-400 16,-394 16,-388 16,-388 16,-64 16,-64 16,-58 22,-52 28,-52"/>
<text text-anchor="middle" x="177" y="-387.2" font-family="Times,serif" font-size="11.00" fill="gray">ActionView</text>
</g>
<g id="clust3" class="cluster"><title>cluster_\ActionView\View</title>
<path fill="none" stroke="gray" d="M36,-300C36,-300 291,-300 291,-300 297,-300 303,-306 303,-312 303,-312 303,-360 303,-360 303,-366 297,-372 291,-372 291,-372 36,-372 36,-372 30,-372 24,-366 24,-360 24,-360 24,-312 24,-312 24,-306 30,-300 36,-300"/>
<text text-anchor="middle" x="163.5" y="-359.2" font-family="Times,serif" font-size="11.00" fill="gray">View</text>
</g>
<g id="clust4" class="cluster"><title>cluster_\ActionView\Registry</title>
<path fill="none" stroke="gray" d="M200,-220C200,-220 318,-220 318,-220 324,-220 330,-226 330,-232 330,-232 330,-280 330,-280 330,-286 324,-292 318,-292 318,-292 200,-292 200,-292 194,-292 188,-286 188,-280 188,-280 188,-232 188,-232 188,-226 194,-220 200,-220"/>
<text text-anchor="middle" x="259" y="-279.2" font-family="Times,serif" font-size="11.00" fill="gray">Registry</text>
</g>
<g id="clust5" class="cluster"><title>cluster_\ActionView\Exception</title>
<path fill="none" stroke="gray" d="M200,-140C200,-140 318,-140 318,-140 324,-140 330,-146 330,-152 330,-152 330,-200 330,-200 330,-206 324,-212 318,-212 318,-212 200,-212 200,-212 194,-212 188,-206 188,-200 188,-200 188,-152 188,-152 188,-146 194,-140 200,-140"/>
<text text-anchor="middle" x="259" y="-199.2" font-family="Times,serif" font-size="11.00" fill="gray">Exception</text>
</g>
<g id="clust6" class="cluster"><title>cluster_\ActionView\Factory</title>
<path fill="none" stroke="gray" d="M217,-60C217,-60 301,-60 301,-60 307,-60 313,-66 313,-72 313,-72 313,-120 313,-120 313,-126 307,-132 301,-132 301,-132 217,-132 217,-132 211,-132 205,-126 205,-120 205,-120 205,-72 205,-72 205,-66 211,-60 217,-60"/>
<text text-anchor="middle" x="259" y="-119.2" font-family="Times,serif" font-size="11.00" fill="gray">Factory</text>
</g>
<!-- \\ActionView\\View\\Base -->
<g id="node1" class="node"><title>\\ActionView\\View\\Base</title>
<polygon fill="none" stroke="black" points="117.5,-344 32.5,-344 32.5,-308 117.5,-308 117.5,-344"/>
<text text-anchor="start" x="41" y="-329.7" font-family="Courier,monospace" font-size="11.00">«abstract»</text>
<text text-anchor="start" x="61" y="-318.7" font-family="Courier,monospace" font-size="11.00">Base</text>
</g>
<!-- \\ActionView\\View\\Concrete -->
<g id="node2" class="node"><title>\\ActionView\\View\\Concrete</title>
<polygon fill="none" stroke="black" points="294.5,-344 223.5,-344 223.5,-308 294.5,-308 294.5,-344"/>
<text text-anchor="middle" x="259" y="-323.2" font-family="Courier,monospace" font-size="11.00">Concrete</text>
</g>
<!-- \\ActionView\\View\\Concrete&#45;&gt;\\ActionView\\View\\Base -->
<g id="edge1" class="edge"><title>\\ActionView\\View\\Concrete&#45;&gt;\\ActionView\\View\\Base</title>
<path fill="none" stroke="black" d="M223.339,-326C196.282,-326 158.269,-326 127.632,-326"/>
<polygon fill="none" stroke="black" points="127.551,-322.5 117.551,-326 127.551,-329.5 127.551,-322.5"/>
</g>
<!-- \\ActionView\\Registry\\TemplateRegistry -->
<g id="node3" class="node"><title>\\ActionView\\Registry\\TemplateRegistry</title>
<polygon fill="none" stroke="black" points="321.5,-264 196.5,-264 196.5,-228 321.5,-228 321.5,-264"/>
<text text-anchor="middle" x="259" y="-243.2" font-family="Courier,monospace" font-size="11.00">TemplateRegistry</text>
</g>
<!-- \\ActionView\\Exception\\TemplateNotFound -->
<g id="node4" class="node"><title>\\ActionView\\Exception\\TemplateNotFound</title>
<polygon fill="none" stroke="black" points="321.5,-184 196.5,-184 196.5,-148 321.5,-148 321.5,-184"/>
<text text-anchor="middle" x="259" y="-163.2" font-family="Courier,monospace" font-size="11.00">TemplateNotFound</text>
</g>
<!-- \\Exception -->
<g id="node6" class="node"><title>\\Exception</title>
<ellipse fill="none" stroke="black" cx="75" cy="-18" rx="48.9926" ry="18"/>
<text text-anchor="middle" x="75" y="-14.3" font-family="Times,serif" font-size="14.00" fill="gray">\Exception</text>
</g>
<!-- \\ActionView\\Exception\\TemplateNotFound&#45;&gt;\\Exception -->
<g id="edge2" class="edge"><title>\\ActionView\\Exception\\TemplateNotFound&#45;&gt;\\Exception</title>
<path fill="none" stroke="black" d="M208.814,-147.964C201.571,-144.453 194.402,-140.457 188,-136 150.35,-109.788 115.391,-69.3369 94.8631,-43.2668"/>
<polygon fill="none" stroke="black" points="97.6137,-41.1023 88.7203,-35.344 92.0817,-45.3915 97.6137,-41.1023"/>
</g>
<!-- \\ActionView\\Factory\\ViewFactory -->
<g id="node5" class="node"><title>\\ActionView\\Factory\\ViewFactory</title>
<polygon fill="none" stroke="black" points="304.5,-104 213.5,-104 213.5,-68 304.5,-68 304.5,-104"/>
<text text-anchor="middle" x="259" y="-83.2" font-family="Courier,monospace" font-size="11.00">ViewFactory</text>
</g>
</g>
</svg>
